<?xml version="1.0" encoding="UTF-8" standalone="no"?>
<svg
   xmlns:dc="http://purl.org/dc/elements/1.1/"
   xmlns:cc="http://creativecommons.org/ns#"
   xmlns:rdf="http://www.w3.org/1999/02/22-rdf-syntax-ns#"
   xmlns:svg="http://www.w3.org/2000/svg"
   xmlns="http://www.w3.org/2000/svg"
   viewBox="0 0 15.431067 24"
   height="24"
   width="15.431067"
   xml:space="preserve"
   version="1.1"
   id="svg3390"><metadata
     id="metadata3396"><rdf:RDF><cc:Work
         rdf:about=""><dc:format>image/svg+xml</dc:format><dc:type
           rdf:resource="http://purl.org/dc/dcmitype/StillImage" /><dc:title></dc:title></cc:Work></rdf:RDF></metadata><defs
     id="defs3394"><clipPath
       id="clipPath3404"
       clipPathUnits="userSpaceOnUse"><path
         id="path3406"
         d="M 0,600 800,600 800,0 0,0 0,600 Z" /></clipPath></defs><g
     transform="matrix(1.25,0,0,-1.25,-287.49976,352.5085)"
     id="g3398"><g
       id="g3400"><path
         id="path3410"
         transform="matrix(0.8,0,0,-0.8,229.99981,282.0068)"
         d="M 10.083984 0 C 9.3735594 0 8.7949219 0.57700937 8.7949219 1.2871094 C 8.7949219 1.9975344 9.3735594 2.5761719 10.083984 2.5761719 L 10.115234 2.5761719 C 10.825334 2.5761719 11.404297 1.9975344 11.404297 1.2871094 C 11.404297 0.57700937 10.825334 0 10.115234 0 L 10.083984 0 z M 7.140625 3.5703125 C 6.429875 3.5703125 5.8515625 4.149275 5.8515625 4.859375 C 5.8515625 5.5691625 6.429875 6.1464844 7.140625 6.1464844 L 9.2128906 6.1464844 C 9.9233156 6.1464844 10.5 5.5691625 10.5 4.859375 C 10.5 4.149275 9.9233156 3.5703125 9.2128906 3.5703125 L 7.140625 3.5703125 z M 4.4863281 7.125 C 3.7671906 7.125 3.1835938 7.71055 3.1835938 8.4296875 C 3.1835938 9.148825 3.7671906 9.7324219 4.4863281 9.7324219 C 5.2051406 9.7324219 5.7910156 9.148825 5.7910156 8.4296875 C 5.7910156 7.71055 5.2051406 7.125 4.4863281 7.125 z M 7.4648438 7.140625 C 6.7544187 7.140625 6.1757812 7.7195875 6.1757812 8.4296875 C 6.1757812 9.1397875 6.7544187 9.7167969 7.4648438 9.7167969 L 8.4316406 9.7167969 C 9.1417406 9.7167969 9.71875 9.1397875 9.71875 8.4296875 C 9.71875 7.7195875 9.1417406 7.140625 8.4316406 7.140625 L 7.4648438 7.140625 z M 6.1679688 10.695312 C 5.4485063 10.695312 4.8652344 11.280862 4.8652344 12 C 4.8652344 12.719137 5.4485063 13.304688 6.1679688 13.304688 C 6.8871062 13.304688 7.4726562 12.719137 7.4726562 12 C 7.4726562 11.280862 6.8871062 10.695312 6.1679688 10.695312 z M 14.126953 10.695312 C 13.407491 10.695312 12.822266 11.280862 12.822266 12 C 12.822266 12.719137 13.407491 13.304688 14.126953 13.304688 C 14.845766 13.304688 15.431641 12.719137 15.431641 12 C 15.431641 11.280862 14.845766 10.695312 14.126953 10.695312 z M 1.2871094 10.712891 C 0.57700937 10.712891 0 11.2899 0 12 C 0 12.7101 0.57700937 13.287109 1.2871094 13.287109 L 3.0410156 13.287109 C 3.7514406 13.287109 4.328125 12.7101 4.328125 12 C 4.328125 11.2899 3.7514406 10.712891 3.0410156 10.712891 L 1.2871094 10.712891 z M 9.2460938 10.712891 C 8.5356688 10.712891 7.9589844 11.2899 7.9589844 12 C 7.9589844 12.7101 8.5356688 13.287109 9.2460938 13.287109 L 10.998047 13.287109 C 11.708147 13.287109 12.287109 12.7101 12.287109 12 C 12.287109 11.2899 11.708147 10.712891 10.998047 10.712891 L 9.2460938 10.712891 z M 7.2753906 14.283203 C 6.5652906 14.283203 5.9882812 14.860212 5.9882812 15.570312 C 5.9882812 16.280413 6.5652906 16.859375 7.2753906 16.859375 L 11.132812 16.859375 C 11.843238 16.859375 12.419922 16.280413 12.419922 15.570312 C 12.419922 14.860212 11.843237 14.283203 11.132812 14.283203 L 7.2753906 14.283203 z M 6.3847656 17.853516 C 5.6746531 17.853516 5.0957031 18.4302 5.0957031 19.140625 C 5.0957031 19.850725 5.6746531 20.429688 6.3847656 20.429688 L 8.4570312 20.429688 C 9.1674562 20.429688 9.7441406 19.850725 9.7441406 19.140625 C 9.7441406 18.4302 9.1674562 17.853516 8.4570312 17.853516 L 6.3847656 17.853516 z M 5.4785156 21.423828 C 4.7684031 21.423828 4.1914062 22.002466 4.1914062 22.712891 C 4.1914062 23.422991 4.7684031 24 5.4785156 24 L 5.5117188 24 C 6.2221437 24 6.7988281 23.422991 6.7988281 22.712891 C 6.7988281 22.002466 6.2221437 21.423828 5.5117188 21.423828 L 5.4785156 21.423828 z "
         style="fill:#dfdfdf;fill-opacity:1;fill-rule:nonzero;stroke:none" /></g></g></svg>